<svg width="23" height="22" viewBox="0 0 23 22" fill="none" xmlns="http://www.w3.org/2000/svg">
<g clip-path="url(#clip0_3_1003)">
<path d="M0.894261 10.5783L5.99137 12.3222L7.96426 18.1382C8.0905 18.5107 8.58741 18.6484 8.91723 18.4012L11.7584 16.278C12.0563 16.0556 12.4805 16.0445 12.7917 16.2516L17.9163 19.6621C18.2691 19.8972 18.7689 19.7199 18.8574 19.3291L22.6114 2.77651C22.708 2.3496 22.2504 1.99346 21.807 2.15068L0.888289 9.54799C0.372059 9.73048 0.376557 10.4005 0.894261 10.5783ZM7.64631 11.3939L17.608 5.76974C17.787 5.66896 17.9712 5.89087 17.8174 6.02159L9.5962 13.0268C9.30723 13.2734 9.12082 13.6034 9.06802 13.9615L8.78797 15.864C8.75088 16.118 8.36163 16.1432 8.28516 15.8974L7.2081 12.4282C7.08473 12.0325 7.2645 11.6099 7.64631 11.3939Z" fill="#D6CECE"/>
</g>
<defs>
<clipPath id="clip0_3_1003">
<rect width="22.1209" height="20.2775" fill="white" transform="translate(0.50354 0.80127)"/>
</clipPath>
</defs>
</svg>
