<svg width="23" height="24" viewBox="0 0 23 24" fill="none" xmlns="http://www.w3.org/2000/svg">
<g clip-path="url(#clip0_3_992)">
<path d="M20.1131 12.4036C20.4288 11.9955 20.6795 11.668 20.8645 11.421C22.1976 9.64864 22.7754 8.51646 22.5984 8.02285L22.5289 7.90724C22.4827 7.83781 22.363 7.77404 22.1705 7.71632C21.9778 7.65865 21.7313 7.64943 21.4309 7.68751L18.102 7.71098C18.0249 7.70331 17.9478 7.7051 17.8707 7.71632C17.7937 7.72804 17.7437 7.7398 17.7204 7.75102C17.6972 7.76278 17.678 7.77221 17.6627 7.77988L17.6165 7.81458C17.578 7.83756 17.5357 7.87813 17.4895 7.9361C17.4432 7.99403 17.4044 8.06117 17.3738 8.13849C17.0117 9.07083 16.5995 9.93786 16.137 10.7393C15.8519 11.2171 15.5898 11.6316 15.3512 11.9817C15.1122 12.3327 14.9119 12.5907 14.75 12.7561C14.5883 12.9218 14.4417 13.055 14.3109 13.1548C14.1797 13.2553 14.0796 13.2975 14.0105 13.2822C13.941 13.2669 13.8754 13.2515 13.8139 13.2357C13.706 13.1666 13.6192 13.0723 13.5538 12.9527C13.4883 12.8335 13.4441 12.6831 13.4208 12.5019C13.3979 12.321 13.3841 12.1648 13.3805 12.0336C13.3764 11.9027 13.3785 11.7179 13.3864 11.4787C13.3941 11.2398 13.3979 11.0783 13.3979 10.9933C13.3979 10.7008 13.4037 10.3828 13.4153 10.0397C13.4268 9.69698 13.4365 9.42515 13.4441 9.22476C13.4518 9.02467 13.4556 8.81256 13.4556 8.58898C13.4556 8.36591 13.4421 8.19029 13.4149 8.06297C13.3879 7.9361 13.3473 7.81283 13.2937 7.69314C13.2396 7.57394 13.1607 7.48128 13.0566 7.41597C12.9525 7.35037 12.8236 7.29857 12.6695 7.25975C12.2608 7.16708 11.7407 7.11758 11.109 7.10944C9.6756 7.09464 8.75474 7.18701 8.34637 7.38711C8.18456 7.4721 8.03805 7.58746 7.90714 7.73396C7.76831 7.9037 7.74916 7.99632 7.84946 8.01113C8.31192 8.08057 8.63917 8.24647 8.83185 8.50833L8.90128 8.64691C8.95512 8.74746 9.00901 8.92462 9.0631 9.1788C9.11698 9.43303 9.15168 9.71428 9.16723 10.0226C9.20577 10.5851 9.20577 11.0665 9.16723 11.4675C9.1287 11.8684 9.09221 12.1803 9.05751 12.4034C9.02277 12.627 8.97072 12.8079 8.90153 12.9465C8.8321 13.0856 8.78593 13.1704 8.7627 13.2012C8.73947 13.2318 8.72033 13.2512 8.70502 13.2589C8.60473 13.2972 8.50084 13.3166 8.39291 13.3166C8.28494 13.3166 8.15399 13.2625 7.99985 13.1545C7.84567 13.0471 7.68565 12.8985 7.52025 12.7096C7.35435 12.5211 7.16777 12.2569 6.9595 11.9177C6.75148 11.579 6.53553 11.178 6.31221 10.7158L6.12742 10.3804C6.01181 10.165 5.85379 9.85082 5.65345 9.43862C5.4531 9.02642 5.27569 8.62777 5.1218 8.24213C5.06004 8.08057 4.96762 7.95729 4.84439 7.8723L4.78671 7.8376C4.74818 7.80695 4.68641 7.77404 4.60167 7.73955C4.51667 7.70485 4.42839 7.67983 4.33572 7.66428L1.16858 7.68726C0.844957 7.68726 0.625468 7.76078 0.509864 7.90724L0.463656 7.97643C0.440302 8.01522 0.428833 8.07698 0.428833 8.16147C0.428833 8.24647 0.452062 8.35035 0.49827 8.47338C0.960728 9.56015 1.46356 10.6081 2.00667 11.6173C2.55007 12.627 3.022 13.4401 3.42269 14.0565C3.82339 14.6734 4.23175 15.2548 4.64804 15.802C5.06433 16.3492 5.33971 16.6996 5.47445 16.8535C5.6092 17.008 5.71513 17.1236 5.79224 17.2004L6.08116 17.4781C6.26596 17.6629 6.53778 17.8844 6.89615 18.1427C7.25447 18.401 7.65112 18.6552 8.0868 18.9053C8.52199 19.156 9.02886 19.3599 9.60667 19.5181C10.1845 19.6764 10.747 19.7399 11.2942 19.7088H12.6235C12.8933 19.6858 13.0974 19.6013 13.2361 19.4545L13.2822 19.3969C13.3128 19.3509 13.3419 19.2795 13.369 19.1832C13.3958 19.087 13.4096 18.9808 13.4096 18.8655C13.4017 18.5342 13.427 18.2351 13.4847 17.9696C13.5423 17.7037 13.6079 17.5036 13.6812 17.3683C13.7544 17.2338 13.8371 17.12 13.9297 17.0273C14.0222 16.9347 14.0875 16.8793 14.1263 16.8599C14.1648 16.841 14.1958 16.8275 14.2187 16.8193C14.4035 16.7577 14.6212 16.8175 14.8718 16.9985C15.1222 17.18 15.3573 17.403 15.577 17.6689C15.7965 17.9349 16.0604 18.2332 16.3687 18.5648C16.6768 18.896 16.9466 19.1426 17.1778 19.3044L17.4091 19.4435C17.5632 19.5357 17.7633 19.6204 18.0101 19.6978C18.2567 19.7746 18.4726 19.794 18.6573 19.7554L21.6165 19.709C21.9092 19.709 22.1366 19.661 22.2985 19.5645C22.4603 19.4688 22.5566 19.3621 22.5874 19.2468C22.618 19.1312 22.6201 19.0008 22.5933 18.854C22.5663 18.7077 22.5392 18.6056 22.5124 18.5479C22.4854 18.4903 22.4603 18.4418 22.4371 18.4035C22.0517 17.71 21.3159 16.8583 20.2293 15.8489L20.2061 15.8259L20.1946 15.8142L20.1832 15.8029H20.1716C19.6782 15.3328 19.3663 15.0168 19.2354 14.8547C18.9965 14.547 18.9424 14.2348 19.0736 13.9189C19.1655 13.6793 19.5121 13.1744 20.1131 12.4036Z" fill="#D6CECE"/>
</g>
<defs>
<clipPath id="clip0_3_992">
<rect width="22.2007" height="22.2007" fill="white" transform="translate(0.349243 0.839844)"/>
</clipPath>
</defs>
</svg>
