<svg width="16" height="16" viewBox="0 0 16 16" fill="none" xmlns="http://www.w3.org/2000/svg">
<path d="M15.1133 11.2283C15.072 11.1956 12.0765 9.03637 11.2543 9.19135C10.8618 9.26079 10.6374 9.52849 10.1871 10.0644C10.1146 10.1509 9.94049 10.3582 9.80513 10.5057C9.52053 10.4129 9.2429 10.2999 8.97437 10.1675C7.58834 9.49277 6.46848 8.37291 5.79371 6.98688C5.6613 6.71839 5.5483 6.44076 5.45556 6.15612C5.6035 6.02026 5.81081 5.84615 5.89938 5.77168C6.43276 5.32384 6.70096 5.09942 6.7704 4.70592C6.9128 3.89076 4.75512 0.874641 4.73248 0.847469C4.63458 0.707618 4.50682 0.591276 4.35845 0.506861C4.21007 0.422447 4.04478 0.37207 3.87454 0.359375C3 0.359375 0.503174 3.5984 0.503174 4.14386C0.503174 4.17556 0.548964 7.39799 4.52265 11.4401C8.56074 15.4093 11.7827 15.4551 11.8144 15.4551C12.3603 15.4551 15.5989 12.9582 15.5989 12.0837C15.5863 11.914 15.5362 11.7493 15.4523 11.6014C15.3683 11.4534 15.2525 11.326 15.1133 11.2283Z" fill="#D6CECE"/>
</svg>
